<mxfile host="app.diagrams.net" agent="Mozilla/5.0 (Windows NT 10.0; Win64; x64) AppleWebKit/537.36 (KHTML, like Gecko) Chrome/128.0.0.0 Safari/537.36" version="24.7.12">
  <diagram name="Page-1" id="Y8eZjSpGqBwvsgM_yRmL">
    <mxGraphModel dx="866" dy="498" grid="1" gridSize="10" guides="1" tooltips="1" connect="1" arrows="1" fold="1" page="1" pageScale="1" pageWidth="850" pageHeight="1100" background="#ffffff" math="0" shadow="1">
      <root>
        <mxCell id="0" />
        <mxCell id="1" parent="0" />
        <mxCell id="70ErV9Hw8kWbtCqYgZwJ-28" value="" style="rounded=0;whiteSpace=wrap;html=1;fillColor=#f8cecc;strokeColor=#b85450;" vertex="1" parent="1">
          <mxGeometry x="195" y="310" width="210" height="250" as="geometry" />
        </mxCell>
        <mxCell id="70ErV9Hw8kWbtCqYgZwJ-26" value="" style="rounded=0;whiteSpace=wrap;html=1;fillColor=#ffe6cc;strokeColor=#d79b00;" vertex="1" parent="1">
          <mxGeometry x="480.5" y="310" width="202" height="250" as="geometry" />
        </mxCell>
        <mxCell id="70ErV9Hw8kWbtCqYgZwJ-24" style="edgeStyle=orthogonalEdgeStyle;rounded=0;orthogonalLoop=1;jettySize=auto;html=1;exitX=0.855;exitY=0.8555;exitDx=0;exitDy=0;exitPerimeter=0;endArrow=none;endFill=0;" edge="1" parent="1" source="70ErV9Hw8kWbtCqYgZwJ-3" target="70ErV9Hw8kWbtCqYgZwJ-21">
          <mxGeometry relative="1" as="geometry" />
        </mxCell>
        <mxCell id="70ErV9Hw8kWbtCqYgZwJ-3" value="" style="sketch=0;points=[[0.5,0,0],[1,0.5,0],[0.5,1,0],[0,0.5,0],[0.145,0.145,0],[0.8555,0.145,0],[0.855,0.8555,0],[0.145,0.855,0]];verticalLabelPosition=bottom;html=1;verticalAlign=top;aspect=fixed;align=center;pointerEvents=1;shape=mxgraph.cisco19.rect;prIcon=router;fillColor=#FAFAFA;strokeColor=#005073;" vertex="1" parent="1">
          <mxGeometry x="419" y="220" width="61.5" height="61.5" as="geometry" />
        </mxCell>
        <mxCell id="70ErV9Hw8kWbtCqYgZwJ-33" style="edgeStyle=orthogonalEdgeStyle;rounded=0;orthogonalLoop=1;jettySize=auto;html=1;" edge="1" parent="1" source="70ErV9Hw8kWbtCqYgZwJ-4" target="70ErV9Hw8kWbtCqYgZwJ-29">
          <mxGeometry relative="1" as="geometry" />
        </mxCell>
        <mxCell id="70ErV9Hw8kWbtCqYgZwJ-4" value="" style="sketch=0;points=[[0.015,0.015,0],[0.985,0.015,0],[0.985,0.985,0],[0.015,0.985,0],[0.25,0,0],[0.5,0,0],[0.75,0,0],[1,0.25,0],[1,0.5,0],[1,0.75,0],[0.75,1,0],[0.5,1,0],[0.25,1,0],[0,0.75,0],[0,0.5,0],[0,0.25,0]];verticalLabelPosition=bottom;html=1;verticalAlign=top;aspect=fixed;align=center;pointerEvents=1;shape=mxgraph.cisco19.rect;prIcon=l2_switch;fillColor=#FAFAFA;strokeColor=#005073;" vertex="1" parent="1">
          <mxGeometry x="275" y="360" width="50" height="50" as="geometry" />
        </mxCell>
        <mxCell id="70ErV9Hw8kWbtCqYgZwJ-6" style="edgeStyle=orthogonalEdgeStyle;rounded=0;orthogonalLoop=1;jettySize=auto;html=1;entryX=0.145;entryY=0.855;entryDx=0;entryDy=0;entryPerimeter=0;endArrow=none;endFill=0;startArrow=none;startFill=0;" edge="1" parent="1" source="70ErV9Hw8kWbtCqYgZwJ-13" target="70ErV9Hw8kWbtCqYgZwJ-3">
          <mxGeometry relative="1" as="geometry" />
        </mxCell>
        <mxCell id="70ErV9Hw8kWbtCqYgZwJ-14" value="" style="edgeStyle=orthogonalEdgeStyle;rounded=0;orthogonalLoop=1;jettySize=auto;html=1;endArrow=none;endFill=0;startArrow=classic;startFill=1;" edge="1" parent="1" source="70ErV9Hw8kWbtCqYgZwJ-4" target="70ErV9Hw8kWbtCqYgZwJ-13">
          <mxGeometry relative="1" as="geometry">
            <mxPoint x="377" y="413" as="sourcePoint" />
            <mxPoint x="428" y="273" as="targetPoint" />
          </mxGeometry>
        </mxCell>
        <mxCell id="70ErV9Hw8kWbtCqYgZwJ-13" value="Ether 2" style="text;html=1;align=center;verticalAlign=middle;whiteSpace=wrap;rounded=0;strokeColor=default;" vertex="1" parent="1">
          <mxGeometry x="270" y="257.5" width="60" height="30" as="geometry" />
        </mxCell>
        <mxCell id="70ErV9Hw8kWbtCqYgZwJ-21" value="Ether 3" style="text;html=1;align=center;verticalAlign=middle;whiteSpace=wrap;rounded=0;strokeColor=default;" vertex="1" parent="1">
          <mxGeometry x="546" y="257.5" width="60" height="30" as="geometry" />
        </mxCell>
        <mxCell id="70ErV9Hw8kWbtCqYgZwJ-25" style="edgeStyle=orthogonalEdgeStyle;rounded=0;orthogonalLoop=1;jettySize=auto;html=1;exitX=0.5;exitY=1;exitDx=0;exitDy=0;entryX=0.5;entryY=0;entryDx=0;entryDy=0;entryPerimeter=0;" edge="1" parent="1" source="70ErV9Hw8kWbtCqYgZwJ-21" target="70ErV9Hw8kWbtCqYgZwJ-18">
          <mxGeometry relative="1" as="geometry" />
        </mxCell>
        <mxCell id="70ErV9Hw8kWbtCqYgZwJ-29" value="" style="fontColor=#0066CC;verticalAlign=top;verticalLabelPosition=bottom;labelPosition=center;align=center;html=1;outlineConnect=0;fillColor=#CCCCCC;strokeColor=#6881B3;gradientColor=none;gradientDirection=north;strokeWidth=2;shape=mxgraph.networks.pc;" vertex="1" parent="1">
          <mxGeometry x="225" y="480" width="58" height="50" as="geometry" />
        </mxCell>
        <mxCell id="70ErV9Hw8kWbtCqYgZwJ-30" value="" style="fontColor=#0066CC;verticalAlign=top;verticalLabelPosition=bottom;labelPosition=center;align=center;html=1;outlineConnect=0;fillColor=#CCCCCC;strokeColor=#6881B3;gradientColor=none;gradientDirection=north;strokeWidth=2;shape=mxgraph.networks.pc;" vertex="1" parent="1">
          <mxGeometry x="315" y="480" width="58" height="50" as="geometry" />
        </mxCell>
        <mxCell id="70ErV9Hw8kWbtCqYgZwJ-31" value="" style="fontColor=#0066CC;verticalAlign=top;verticalLabelPosition=bottom;labelPosition=center;align=center;html=1;outlineConnect=0;fillColor=#CCCCCC;strokeColor=#6881B3;gradientColor=none;gradientDirection=north;strokeWidth=2;shape=mxgraph.networks.pc;" vertex="1" parent="1">
          <mxGeometry x="502" y="480" width="58" height="50" as="geometry" />
        </mxCell>
        <mxCell id="70ErV9Hw8kWbtCqYgZwJ-32" value="" style="fontColor=#0066CC;verticalAlign=top;verticalLabelPosition=bottom;labelPosition=center;align=center;html=1;outlineConnect=0;fillColor=#CCCCCC;strokeColor=#6881B3;gradientColor=none;gradientDirection=north;strokeWidth=2;shape=mxgraph.networks.pc;" vertex="1" parent="1">
          <mxGeometry x="592" y="480" width="58" height="50" as="geometry" />
        </mxCell>
        <mxCell id="70ErV9Hw8kWbtCqYgZwJ-34" style="edgeStyle=orthogonalEdgeStyle;rounded=0;orthogonalLoop=1;jettySize=auto;html=1;exitX=0.5;exitY=1;exitDx=0;exitDy=0;exitPerimeter=0;entryX=0.5;entryY=0.07;entryDx=0;entryDy=0;entryPerimeter=0;" edge="1" parent="1" source="70ErV9Hw8kWbtCqYgZwJ-4" target="70ErV9Hw8kWbtCqYgZwJ-30">
          <mxGeometry relative="1" as="geometry" />
        </mxCell>
        <mxCell id="70ErV9Hw8kWbtCqYgZwJ-42" style="edgeStyle=orthogonalEdgeStyle;rounded=0;orthogonalLoop=1;jettySize=auto;html=1;" edge="1" parent="1" source="70ErV9Hw8kWbtCqYgZwJ-18" target="70ErV9Hw8kWbtCqYgZwJ-31">
          <mxGeometry relative="1" as="geometry" />
        </mxCell>
        <mxCell id="70ErV9Hw8kWbtCqYgZwJ-18" value="" style="sketch=0;points=[[0.015,0.015,0],[0.985,0.015,0],[0.985,0.985,0],[0.015,0.985,0],[0.25,0,0],[0.5,0,0],[0.75,0,0],[1,0.25,0],[1,0.5,0],[1,0.75,0],[0.75,1,0],[0.5,1,0],[0.25,1,0],[0,0.75,0],[0,0.5,0],[0,0.25,0]];verticalLabelPosition=bottom;html=1;verticalAlign=top;aspect=fixed;align=center;pointerEvents=1;shape=mxgraph.cisco19.rect;prIcon=l2_switch;fillColor=#FAFAFA;strokeColor=#005073;" vertex="1" parent="1">
          <mxGeometry x="551" y="360" width="50" height="50" as="geometry" />
        </mxCell>
        <mxCell id="70ErV9Hw8kWbtCqYgZwJ-43" style="edgeStyle=orthogonalEdgeStyle;rounded=0;orthogonalLoop=1;jettySize=auto;html=1;entryX=0.5;entryY=0.07;entryDx=0;entryDy=0;entryPerimeter=0;" edge="1" parent="1" source="70ErV9Hw8kWbtCqYgZwJ-18" target="70ErV9Hw8kWbtCqYgZwJ-32">
          <mxGeometry relative="1" as="geometry" />
        </mxCell>
        <mxCell id="70ErV9Hw8kWbtCqYgZwJ-45" style="edgeStyle=orthogonalEdgeStyle;rounded=0;orthogonalLoop=1;jettySize=auto;html=1;" edge="1" parent="1" source="70ErV9Hw8kWbtCqYgZwJ-44" target="70ErV9Hw8kWbtCqYgZwJ-3">
          <mxGeometry relative="1" as="geometry" />
        </mxCell>
        <mxCell id="70ErV9Hw8kWbtCqYgZwJ-44" value="" style="ellipse;shape=cloud;whiteSpace=wrap;html=1;" vertex="1" parent="1">
          <mxGeometry x="389.75" y="110" width="120" height="80" as="geometry" />
        </mxCell>
        <mxCell id="70ErV9Hw8kWbtCqYgZwJ-46" value="RUANG KELAS" style="text;html=1;align=center;verticalAlign=middle;whiteSpace=wrap;rounded=0;strokeColor=default;fillColor=default;" vertex="1" parent="1">
          <mxGeometry x="334" y="320" width="60" height="30" as="geometry" />
        </mxCell>
        <mxCell id="70ErV9Hw8kWbtCqYgZwJ-49" value="RUANG LAB" style="text;html=1;align=center;verticalAlign=middle;whiteSpace=wrap;rounded=0;strokeColor=default;fillColor=default;" vertex="1" parent="1">
          <mxGeometry x="610" y="320" width="60" height="30" as="geometry" />
        </mxCell>
      </root>
    </mxGraphModel>
  </diagram>
</mxfile>
